<svg xmlns="http://www.w3.org/2000/svg" viewBox="0 0 96 96" fill="none">
  <rect width="96" height="96" rx="28" fill="#183429"/>
  <path d="M48 18C55.5 25.5 57.5 34.5 48 45C38.5 34.5 40.5 25.5 48 18Z" fill="#F4E9D8"/>
  <path d="M29 34C38.5 34 44.5 38.5 48 48C38 50.5 31.5 47.5 29 34Z" fill="#A8C49A"/>
  <path d="M67 34C57.5 34 51.5 38.5 48 48C58 50.5 64.5 47.5 67 34Z" fill="#D7B66A"/>
  <path d="M48 78C35 78 26 68.5 26 56H70C70 68.5 61 78 48 78Z" fill="#EFE2CB"/>
  <path d="M34 56C34 48.3 40.3 42 48 42C55.7 42 62 48.3 62 56" stroke="#6E8F75" stroke-width="5" stroke-linecap="round"/>
</svg>
